# xmcd CD database file
# Copyright (C) 1993-1998 Ti Kan
#
# Track frame offsets:
#	182
#	5847
#	15557
#	26982
#	36047
#	47157
#	60995
#	71072
#	81295
#	98170
#	109755
#	122195
#	132242
#	140570
#	152092
#	162920
#	176617
#	189932
#	199495
#	212542
#	224455
#	239567
#	251465
#	265142
#	278865
#	290357
#	302890
#	313760
#	325922
#
# Disc length: 4470 seconds
#
# Revision: 1
# Processed by: cddbd v1.4b41PL1 Copyright (c) Steve Scherf et al.
# Submitted via: CDValet v3.31 - Copyright (c) 1997 Greg Leichner
#
DISCID=b411741d
DTITLE=Willie Nelson - Is There Something On Your Mind
DYEAR=1900
DGENRE=
TTITLE0=The Ghost
TTITLE1=Let's Pretend
TTITLE2=I'm Gonna Waste A Lot Of Teardrops
TTITLE3=Wastin' Time
TTITLE4=Go Away
TTITLE5=No Tomorrow In Sight
TTITLE6=A New Way to Cry
TTITLE7=Broken Promises
TTITLE8=I Let My Mind Wonder
TTITLE9=December Days
TTITLE10=I Can't Find The Time
TTITLE11=I Didn't Sleep A Wink
TTITLE12=You Wouldn't Cross The Street To Say Goodbye
TTITLE13=Suffering In Silence
TTITLE14=I Feel Sorry For Him
TTITLE15=You'll Always Have Someone
TTITLE16=I Just Don't Understand
TTITLE17=Building Heartaches
TTITLE18=Pages
TTITLE19=Is There Something On Your Mind
TTITLE20=Face Of A Fighter
TTITLE21=I Hope So
TTITLE22=Everything But You
TTITLE23=A Moment Isn't Very Long
TTITLE24=Some Other Time
TTITLE25=Shelter Of My Arms
TTITLE26=Blame It On The Times
TTITLE27=End Of An Understanding
TTITLE28=One Step Beyond
EXTD=
EXTT0=
EXTT1=
EXTT2=
EXTT3=
EXTT4=
EXTT5=
EXTT6=
EXTT7=
EXTT8=
EXTT9=
EXTT10=
EXTT11=
EXTT12=
EXTT13=
EXTT14=
EXTT15=
EXTT16=
EXTT17=
EXTT18=
EXTT19=
EXTT20=
EXTT21=
EXTT22=
EXTT23=
EXTT24=
EXTT25=
EXTT26=
EXTT27=
EXTT28=
PLAYORDER=
